<svg id="Layer_1_1_" enable-background="new 0 0 64 64" height="512" viewBox="0 0 64 64" width="512" xmlns="http://www.w3.org/2000/svg"><g fill="#50b6cf"><circle cx="32" cy="5" r="3"/><path d="m26 14c0-3.31371 2.68629-6 6-6s6 2.68629 6 6z"/><circle cx="48" cy="13" r="3"/><path d="m42 22c0-3.31371 2.68629-6 6-6s6 2.68629 6 6z"/><circle cx="48" cy="45" r="3"/><path d="m42 54c0-3.31371 2.68629-6 6-6s6 2.68629 6 6z"/><circle cx="32" cy="53" r="3"/><path d="m26 62c0-3.31371 2.68629-6 6-6s6 2.68629 6 6z"/><circle cx="56" cy="29" r="3"/><path d="m50 38c0-3.31371 2.68629-6 6-6s6 2.68629 6 6z"/><path d="m22 22c0-3.31371-2.68629-6-6-6s-6 2.68629-6 6z"/><circle cx="16" cy="45" r="3"/><path d="m22 54c0-3.31371-2.68629-6-6-6s-6 2.68629-6 6z"/><circle cx="8" cy="29" r="3"/><circle cx="16" cy="13" r="3"/></g><path d="m17.55438 10.44562c.27722.45453.44562.98303.44562 1.55438 0 1.65686-1.34314 3-3 3-.57135 0-1.09985-.1684-1.55438-.44562.52673.86359 1.46887 1.44562 2.55438 1.44562 1.65686 0 3-1.34314 3-3 0-1.08551-.58203-2.02765-1.44562-2.55438z" fill="#3cadc9"/><path d="m14 38c0-3.31371-2.68629-6-6-6s-6 2.68629-6 6z" fill="#50b6cf"/><circle cx="32" cy="32" fill="#f5a947" r="10"/><path d="m37.99231 24.00787c1.255 1.67121 2.00769 3.74128 2.00769 5.99213 0 5.52283-4.47717 10-10 10-2.25092 0-4.32092-.75275-5.99219-2.00781 1.8244 2.42926 4.72028 4.00781 7.99219 4.00781 5.52283 0 10-4.47717 10-10 0-3.27191-1.57849-6.16772-4.00769-7.99213z" fill="#f09d3a"/><path d="m19.92798 17.47137c-1.74011 1.92249-5.43933 3.30255-9.8338 3.50104-.05786.33454-.09418.67652-.09418 1.02759h12c0-1.80981-.80487-3.42853-2.07202-4.52863z" fill="#3cadc9"/><path d="m33.55438 2.44562c.27722.45453.44562.98303.44562 1.55438 0 1.65686-1.34314 3-3 3-.57135 0-1.09985-.1684-1.55438-.44562.52673.86359 1.46887 1.44562 2.55438 1.44562 1.65686 0 3-1.34314 3-3 0-1.08551-.58203-2.02765-1.44562-2.55438z" fill="#3cadc9"/><path d="m35.92798 9.47137c-1.74011 1.92249-5.43933 3.30255-9.8338 3.50104-.05786.33454-.09418.67652-.09418 1.02759h12c0-1.80981-.80487-3.42853-2.07202-4.52863z" fill="#3cadc9"/><path d="m49.55438 10.44562c.27722.45453.44562.98303.44562 1.55438 0 1.65686-1.34314 3-3 3-.57135 0-1.09985-.1684-1.55438-.44562.52673.86359 1.46887 1.44562 2.55438 1.44562 1.65686 0 3-1.34314 3-3 0-1.08551-.58203-2.02765-1.44562-2.55438z" fill="#3cadc9"/><path d="m51.92798 17.47137c-1.74011 1.92249-5.43933 3.30255-9.8338 3.50104-.05786.33454-.09418.67652-.09418 1.02759h12c0-1.80981-.80487-3.42853-2.07202-4.52863z" fill="#3cadc9"/><path d="m57.55438 26.44562c.27722.45453.44562.98303.44562 1.55438 0 1.65686-1.34314 3-3 3-.57135 0-1.09985-.1684-1.55438-.44562.52673.86359 1.46887 1.44562 2.55438 1.44562 1.65686 0 3-1.34314 3-3 0-1.08551-.58203-2.02765-1.44562-2.55438z" fill="#3cadc9"/><path d="m59.92798 33.47137c-1.74011 1.92249-5.43933 3.30255-9.8338 3.50104-.05786.33454-.09418.67652-.09418 1.02759h12c0-1.80981-.80487-3.42853-2.07202-4.52863z" fill="#3cadc9"/><path d="m49.55438 42.44562c.27722.45453.44562.98303.44562 1.55438 0 1.65686-1.34314 3-3 3-.57135 0-1.09985-.1684-1.55438-.44562.52673.86359 1.46887 1.44562 2.55438 1.44562 1.65686 0 3-1.34314 3-3 0-1.08551-.58203-2.02765-1.44562-2.55438z" fill="#3cadc9"/><path d="m51.92798 49.47137c-1.74011 1.92249-5.43933 3.30255-9.8338 3.50104-.05786.33454-.09418.67652-.09418 1.02759h12c0-1.80981-.80487-3.42853-2.07202-4.52863z" fill="#3cadc9"/><path d="m33.55438 50.44562c.27722.45453.44562.98303.44562 1.55438 0 1.65686-1.34314 3-3 3-.57135 0-1.09985-.1684-1.55438-.44562.52673.86359 1.46887 1.44562 2.55438 1.44562 1.65686 0 3-1.34314 3-3 0-1.08551-.58203-2.02765-1.44562-2.55438z" fill="#3cadc9"/><path d="m35.92798 57.47137c-1.74011 1.92249-5.43933 3.30255-9.8338 3.50104-.05786.33454-.09418.67652-.09418 1.02759h12c0-1.80981-.80487-3.42853-2.07202-4.52863z" fill="#3cadc9"/><path d="m17.55438 42.44562c.27722.45453.44562.98303.44562 1.55438 0 1.65686-1.34314 3-3 3-.57135 0-1.09985-.1684-1.55438-.44562.52673.86359 1.46887 1.44562 2.55438 1.44562 1.65686 0 3-1.34314 3-3 0-1.08551-.58203-2.02765-1.44562-2.55438z" fill="#3cadc9"/><path d="m19.92798 49.47137c-1.74011 1.92249-5.43933 3.30255-9.8338 3.50104-.05786.33454-.09418.67652-.09418 1.02759h12c0-1.80981-.80487-3.42853-2.07202-4.52863z" fill="#3cadc9"/><path d="m9.55438 26.44562c.27722.45453.44562.98303.44562 1.55438 0 1.65686-1.34314 3-3 3-.57135 0-1.09985-.1684-1.55438-.44562.52673.86359 1.46887 1.44562 2.55438 1.44562 1.65686 0 3-1.34314 3-3 0-1.08551-.58203-2.02765-1.44562-2.55438z" fill="#3cadc9"/><path d="m11.92798 33.47137c-1.74011 1.92249-5.43933 3.30255-9.8338 3.50104-.05786.33454-.09418.67652-.09418 1.02759h12c0-1.80981-.80487-3.42853-2.07202-4.52863z" fill="#3cadc9"/></svg>